<svg width="24" height="25" viewBox="0 0 24 25" fill="none" xmlns="http://www.w3.org/2000/svg">
<path d="M24 12.0412C24.0001 14.4146 23.2965 16.7347 21.978 18.7082C20.6595 20.6817 18.7854 22.2199 16.5927 23.1282C14.4 24.0366 11.9872 24.2743 9.65934 23.8114C7.33152 23.3484 5.19327 22.2056 3.51497 20.5274C1.83667 18.8492 0.693711 16.711 0.230632 14.3832C-0.232446 12.0554 0.00515379 9.64258 0.913385 7.44983C1.82162 5.25707 3.35969 3.38289 5.33309 2.06428C7.30649 0.745675 9.6266 0.0418701 12 0.0418701C13.5758 0.0417798 15.1362 0.352084 16.5922 0.955066C18.0481 1.55805 19.3709 2.44189 20.4852 3.55614C21.5996 4.67039 22.4835 5.99321 23.0865 7.44908C23.6896 8.90495 24 10.4653 24 12.0412ZM10.612 18.3949L19.5153 9.49502C19.5872 9.42313 19.6442 9.33778 19.6831 9.24386C19.722 9.14993 19.7421 9.04926 19.7421 8.94759C19.7421 8.84592 19.722 8.74525 19.6831 8.65133C19.6442 8.5574 19.5872 8.47205 19.5153 8.40017L18.4205 7.30256C18.3486 7.23067 18.2632 7.17365 18.1693 7.13474C18.0754 7.09583 17.9747 7.07581 17.873 7.07581C17.7714 7.07581 17.6707 7.09583 17.5768 7.13474C17.4828 7.17365 17.3975 7.23067 17.3256 7.30256L10.0649 14.5633L6.67508 11.1734C6.60319 11.1015 6.51785 11.0445 6.42392 11.0056C6.32999 10.9667 6.22932 10.9467 6.12766 10.9467C6.02599 10.9467 5.92532 10.9667 5.83139 11.0056C5.73746 11.0445 5.65212 11.1015 5.58023 11.1734L4.48469 12.2676C4.4128 12.3395 4.35578 12.4248 4.31687 12.5187C4.27797 12.6127 4.25794 12.7133 4.25794 12.815C4.25794 12.9167 4.27797 13.0173 4.31687 13.1113C4.35578 13.2052 4.4128 13.2905 4.48469 13.3624L9.51715 18.3949C9.58904 18.4668 9.67438 18.5238 9.76831 18.5627C9.86224 18.6016 9.96291 18.6216 10.0646 18.6216C10.1662 18.6216 10.2669 18.6016 10.3608 18.5627C10.4548 18.5238 10.5401 18.4668 10.612 18.3949Z" fill="#0650E0"/>
</svg>
