<svg width="50" height="51" viewBox="0 0 50 51" fill="none" xmlns="http://www.w3.org/2000/svg">
<path d="M50 25.2544C50 11.4473 38.8071 0.254395 25 0.254395C11.1929 0.254395 0 11.4473 0 25.2544C0 39.0615 11.1929 50.2544 25 50.2544C38.8071 50.2544 50 39.0615 50 25.2544Z" fill="#0650E0"/>
<path d="M35.8414 15.3511H15.0971C14.4113 15.3535 13.7545 15.6279 13.2707 16.1141C12.7869 16.6002 12.5158 17.2584 12.5167 17.9443L12.504 33.5022C12.5058 34.1893 12.7796 34.8479 13.2655 35.3338C13.7514 35.8197 14.41 36.0935 15.0971 36.0953H35.8414C36.5286 36.0935 37.1871 35.8197 37.673 35.3338C38.1589 34.8479 38.4327 34.1893 38.4346 33.5022V17.9443C38.4327 17.2571 38.1589 16.5985 37.673 16.1126C37.1871 15.6267 36.5286 15.3529 35.8414 15.3511ZM35.8414 20.5374L25.4698 27.0204L15.0971 20.5374V17.9443L25.4687 24.4272L35.8402 17.9443L35.8414 20.5374Z" fill="white"/>
</svg>
