<svg width="35" height="35" viewBox="0 0 35 35" fill="none" xmlns="http://www.w3.org/2000/svg">
<rect x="0.297302" y="0.584595" width="33.7297" height="33.7297" rx="16.8649" fill="#F7F8F9"/>
<path d="M21.6335 21.9215C21.9079 21.6471 21.9079 21.2021 21.6335 20.9277L18.1557 17.45L21.6344 13.9713C21.9088 13.6969 21.9088 13.252 21.6344 12.9775C21.36 12.7031 20.9151 12.7031 20.6406 12.9775L17.162 16.4562L13.6833 12.9775C13.4089 12.7031 12.9639 12.7031 12.6895 12.9775C12.4151 13.252 12.4151 13.6969 12.6895 13.9713L16.1682 17.45L12.6905 20.9277C12.416 21.2021 12.416 21.6471 12.6905 21.9215C12.9649 22.1959 13.4098 22.1959 13.6842 21.9215L17.162 18.4438L20.6397 21.9215C20.9141 22.1959 21.359 22.1959 21.6335 21.9215Z" fill="#191D23"/>
</svg>
