<svg width="123" height="59" viewBox="0 0 123 59" fill="none" xmlns="http://www.w3.org/2000/svg">
<circle cx="3.23773" cy="3.32904" r="2.57001" fill="#0650E0"/>
<circle cx="22.7695" cy="3.32904" r="2.57001" fill="#0650E0"/>
<circle cx="42.3013" cy="3.32904" r="2.57001" fill="#0650E0"/>
<circle cx="61.8338" cy="3.32904" r="2.57001" fill="#0650E0"/>
<circle cx="81.3661" cy="3.32904" r="2.57001" fill="#0650E0"/>
<circle cx="100.898" cy="3.32904" r="2.57001" fill="#0650E0"/>
<circle cx="120.43" cy="3.32904" r="2.57001" fill="#0650E0"/>
<circle cx="3.23761" cy="20.8051" r="2.57001" fill="#0650E0"/>
<circle cx="22.7693" cy="20.8051" r="2.57001" fill="#0650E0"/>
<circle cx="42.3012" cy="20.8051" r="2.57001" fill="#0650E0"/>
<circle cx="61.8337" cy="20.8051" r="2.57001" fill="#0650E0"/>
<circle cx="81.366" cy="20.8051" r="2.57001" fill="#0650E0"/>
<circle cx="100.897" cy="20.8051" r="2.57001" fill="#0650E0"/>
<circle cx="120.429" cy="20.8051" r="2.57001" fill="#0650E0"/>
<circle cx="3.23761" cy="38.2812" r="2.57001" fill="#0650E0"/>
<circle cx="22.7693" cy="38.2812" r="2.57001" fill="#0650E0"/>
<circle cx="42.3012" cy="38.2812" r="2.57001" fill="#0650E0"/>
<circle cx="61.8337" cy="38.2812" r="2.57001" fill="#0650E0"/>
<circle cx="81.366" cy="38.2812" r="2.57001" fill="#0650E0"/>
<circle cx="100.897" cy="38.2812" r="2.57001" fill="#0650E0"/>
<circle cx="120.429" cy="38.2812" r="2.57001" fill="#0650E0"/>
<circle cx="3.23761" cy="55.7573" r="2.57001" fill="#0650E0"/>
<circle cx="22.7693" cy="55.7573" r="2.57001" fill="#0650E0"/>
<circle cx="42.3012" cy="55.7573" r="2.57001" fill="#0650E0"/>
<circle cx="61.8337" cy="55.7573" r="2.57001" fill="#0650E0"/>
<circle cx="81.366" cy="55.7573" r="2.57001" fill="#0650E0"/>
<circle cx="100.897" cy="55.7573" r="2.57001" fill="#0650E0"/>
<circle cx="120.429" cy="55.7573" r="2.57001" fill="#0650E0"/>
</svg>
