<svg width="84" height="58" viewBox="0 0 84 58" fill="none" xmlns="http://www.w3.org/2000/svg">
<circle cx="2.56202" cy="3.06397" r="2.56202" fill="#0650E0"/>
<circle cx="22.0334" cy="3.06397" r="2.56202" fill="#0650E0"/>
<circle cx="41.5047" cy="3.06397" r="2.56202" fill="#0650E0"/>
<circle cx="60.9761" cy="3.06397" r="2.56202" fill="#0650E0"/>
<circle cx="80.4474" cy="3.06397" r="2.56202" fill="#0650E0"/>
<circle cx="2.56202" cy="20.4857" r="2.56202" fill="#0650E0"/>
<circle cx="22.0334" cy="20.4857" r="2.56202" fill="#0650E0"/>
<circle cx="41.5047" cy="20.4857" r="2.56202" fill="#0650E0"/>
<circle cx="60.9761" cy="20.4857" r="2.56202" fill="#0650E0"/>
<circle cx="80.4474" cy="20.4857" r="2.56202" fill="#0650E0"/>
<circle cx="2.56202" cy="37.9075" r="2.56202" fill="#0650E0"/>
<circle cx="22.0334" cy="37.9075" r="2.56202" fill="#0650E0"/>
<circle cx="41.5047" cy="37.9075" r="2.56202" fill="#0650E0"/>
<circle cx="60.9761" cy="37.9075" r="2.56202" fill="#0650E0"/>
<circle cx="80.4474" cy="37.9075" r="2.56202" fill="#0650E0"/>
<circle cx="2.56202" cy="55.3291" r="2.56202" fill="#0650E0"/>
<circle cx="22.0334" cy="55.3291" r="2.56202" fill="#0650E0"/>
<circle cx="41.5047" cy="55.3291" r="2.56202" fill="#0650E0"/>
<circle cx="60.9761" cy="55.3291" r="2.56202" fill="#0650E0"/>
<circle cx="80.4474" cy="55.3291" r="2.56202" fill="#0650E0"/>
</svg>
