<svg width="50" height="51" viewBox="0 0 50 51" fill="none" xmlns="http://www.w3.org/2000/svg">
<path d="M50 25.5696C50 11.7625 38.8071 0.56958 25 0.56958C11.1929 0.56958 3.05176e-05 11.7625 3.05176e-05 25.5696C3.05176e-05 39.3767 11.1929 50.5696 25 50.5696C38.8071 50.5696 50 39.3767 50 25.5696Z" fill="#0650E0"/>
<path d="M25.4688 13.1155C24.2806 13.1146 23.1038 13.3479 22.0059 13.8022C20.908 14.2565 19.9104 14.9228 19.0702 15.763C18.23 16.6031 17.5637 17.6007 17.1095 18.6987C16.6552 19.7966 16.4218 20.9733 16.4227 22.1615C16.4227 28.9454 25.4688 38.9604 25.4688 38.9604C25.4688 38.9604 34.5148 28.9454 34.5148 22.1615C34.5157 20.9733 34.2823 19.7966 33.828 18.6987C33.3738 17.6007 32.7075 16.6031 31.8673 15.763C31.0271 14.9228 30.0295 14.2565 28.9316 13.8022C27.8337 13.3479 26.6569 13.1146 25.4688 13.1155ZM25.4688 25.3868C24.8292 25.3879 24.2037 25.1992 23.6715 24.8446C23.1393 24.4901 22.7242 23.9855 22.479 23.3949C22.2337 22.8042 22.1692 22.1541 22.2937 21.5268C22.4182 20.8995 22.726 20.3232 23.1783 19.871C23.6305 19.4188 24.2067 19.111 24.834 18.9865C25.4613 18.862 26.1115 18.9265 26.7021 19.1717C27.2927 19.417 27.7973 19.832 28.1519 20.3642C28.5065 20.8965 28.6952 21.522 28.694 22.1615C28.6922 23.0163 28.3518 23.8356 27.7473 24.4401C27.1429 25.0445 26.3236 25.3849 25.4688 25.3868Z" fill="white"/>
</svg>
