<svg width="50" height="51" viewBox="0 0 50 51" fill="none" xmlns="http://www.w3.org/2000/svg">
<path d="M50 25.4111C50 11.604 38.8071 0.411133 25 0.411133C11.1929 0.411133 0 11.604 0 25.4111C0 39.2183 11.1929 50.4111 25 50.4111C38.8071 50.4111 50 39.2183 50 25.4111Z" fill="#0650E0"/>
<path d="M36.2928 30.5991L31.2489 28.4377C31.0335 28.3459 30.7941 28.3266 30.5668 28.3825C30.3394 28.4385 30.1364 28.5667 29.9882 28.7479L27.7539 31.4777C24.2481 29.8245 21.4268 27.0028 19.7741 23.4968L22.5039 21.2625C22.6856 21.1146 22.8141 20.9116 22.8701 20.6841C22.9261 20.4566 22.9064 20.2171 22.8141 20.0018L20.6516 14.9578C20.5504 14.7258 20.3714 14.5363 20.1455 14.4219C19.9196 14.3076 19.661 14.2756 19.414 14.3315L14.7301 15.4128C14.4919 15.4677 14.2793 15.6018 14.1271 15.7932C13.9749 15.9845 13.892 16.2218 13.892 16.4662C13.8917 19.2106 14.432 21.9281 15.482 24.4636C16.5321 26.9991 18.0714 29.3029 20.0119 31.2434C21.9524 33.1839 24.2562 34.7232 26.7917 35.7732C29.3272 36.8233 32.0447 37.3636 34.789 37.3633C35.0335 37.3633 35.2708 37.2804 35.4621 37.1282C35.6535 36.976 35.7875 36.7634 35.8425 36.5252L36.9238 31.8412C36.9796 31.593 36.9472 31.333 36.832 31.106C36.7169 30.8791 36.5262 30.6994 36.2928 30.5979V30.5991Z" fill="white"/>
</svg>
