<svg width="347" height="346" viewBox="0 0 347 346" fill="none" xmlns="http://www.w3.org/2000/svg">
<path d="M345.848 336.507C346.208 333.89 346.208 330.651 346.208 326.711C346.208 311.602 346.208 296.494 346.208 281.395C346.208 251.87 346.208 222.344 346.198 192.818C346.198 133.075 346.179 73.3428 346.169 13.6004C346.169 9.71872 345.975 5.36038 343.134 2.72397C340.546 0.31131 336.635 0.175112 333.094 0.165384C260.082 0.107013 187.09 0.0583707 114.087 0C110.935 0 107.511 0.0972846 105.089 2.10135C102.569 4.19296 101.907 7.72439 101.411 10.964C100.536 16.6065 99.6601 22.249 98.7845 27.8915C98.5219 29.5842 98.2689 31.3645 98.8818 32.9697C99.9811 35.8299 103.308 36.9876 106.178 38.0577C127.513 46.0837 141.959 69.4709 139.576 92.1381C137.192 114.805 118.203 134.681 95.6714 138.095C73.1306 141.51 49.1111 128.153 40.122 107.198C38.5655 103.579 37.0673 99.3858 33.4386 97.8487C31.3372 96.9537 28.9537 97.1872 26.687 97.4402C22.2314 97.9266 17.7758 98.413 13.3299 98.8897C8.8645 99.3761 3.69869 100.3 1.55843 104.26C0.459117 106.312 0.429932 108.725 0.429932 111.021C0.429932 185.716 0.449389 260.401 0.459117 335.096C0.459117 337.422 0.498031 339.893 1.74327 341.848C3.95163 345.331 8.7964 345.7 12.9213 345.7C118.767 345.73 224.622 345.759 330.468 345.798C341.723 345.798 344.934 343.152 345.839 336.507H345.848ZM265.948 236.44C265.948 236.44 265.929 236.421 265.919 236.401C265.929 236.401 265.948 236.411 265.958 236.411C265.958 236.411 265.939 236.43 265.958 236.44H265.948ZM61.1452 235.594H61.116C61.116 235.594 61.1257 235.584 61.1257 235.574C61.1257 235.574 61.1322 235.581 61.1452 235.594ZM125.421 142.512C125.343 142.541 125.256 142.57 125.188 142.609C125.11 142.58 125.032 142.551 124.954 142.522C125.11 142.512 125.265 142.502 125.421 142.512ZM134.605 236.421C134.605 236.421 134.605 236.421 134.605 236.431C134.605 236.431 134.605 236.431 134.605 236.421ZM159.354 242.657C159.354 242.676 159.354 242.686 159.354 242.705C159.344 242.686 159.344 242.676 159.334 242.657H159.354ZM204.688 201.321C204.688 201.321 204.63 201.311 204.601 201.311C204.63 201.291 204.669 201.282 204.698 201.262C204.698 201.282 204.698 201.291 204.698 201.321H204.688ZM128.875 188.314C128.875 188.314 128.875 188.265 128.875 188.245C128.894 188.255 128.923 188.275 128.943 188.284C128.923 188.284 128.904 188.304 128.875 188.314ZM126.987 141.315V141.335C126.987 141.335 126.919 141.306 126.89 141.296C126.929 141.286 126.958 141.277 126.997 141.267C126.987 141.277 126.987 141.296 126.987 141.315ZM98.2981 235.993C98.2981 235.993 98.3273 235.973 98.3468 235.964C98.3468 235.983 98.3468 236.002 98.3468 236.032C98.3468 236.012 98.3273 236.002 98.3079 235.993H98.2981ZM158.731 282.65C158.527 282.777 158.323 282.884 158.099 282.981C158.274 282.738 158.488 282.65 158.731 282.65ZM170.308 259.292C170.308 259.292 170.308 259.341 170.308 259.37C170.279 259.37 170.259 259.37 170.23 259.37C170.259 259.341 170.289 259.312 170.318 259.283L170.308 259.292ZM262.096 244.213C262.096 244.213 262.115 244.213 262.135 244.213V244.262C262.135 244.262 262.106 244.233 262.096 244.213ZM204.221 38.0091V37.9896C204.221 37.9896 204.231 37.9799 204.231 37.9701C204.231 37.9701 204.231 37.9993 204.221 38.0091ZM70.0273 290.326C70.0273 290.326 70.0175 290.316 70.0078 290.316C70.0078 290.316 70.0175 290.316 70.0273 290.316V290.326Z" fill="#0650E0"/>
</svg>
