<svg width="19" height="18" viewBox="0 0 19 18" fill="none" xmlns="http://www.w3.org/2000/svg">
<path d="M8.45807 1.05556L6.3043 5.42268L1.48494 6.12637C1.29009 6.15493 1.1071 6.23739 0.956655 6.36446C0.806205 6.49153 0.694285 6.65814 0.633534 6.84546C0.572784 7.03279 0.565625 7.23337 0.612866 7.42455C0.660106 7.61573 0.759865 7.78989 0.900873 7.92736L4.38744 11.3239L3.56412 16.123C3.531 16.317 3.55277 16.5163 3.62696 16.6985C3.70115 16.8807 3.82481 17.0386 3.98398 17.1542C4.14314 17.2699 4.33147 17.3387 4.52769 17.3529C4.72391 17.3672 4.92021 17.3263 5.09442 17.2349L9.40571 14.969L13.717 17.2349C13.8912 17.3256 14.0872 17.3659 14.283 17.3513C14.4789 17.3367 14.6667 17.2678 14.8255 17.1523C14.9843 17.0368 15.1078 16.8792 15.182 16.6974C15.2561 16.5156 15.2781 16.3167 15.2454 16.123L14.4221 11.3239L17.9087 7.92736C18.0497 7.78989 18.1494 7.61573 18.1967 7.42455C18.2439 7.23337 18.2368 7.03279 18.176 6.84546C18.1153 6.65814 18.0033 6.49153 17.8529 6.36446C17.7024 6.23739 17.5195 6.15493 17.3246 6.12637L12.5052 5.42268L10.3515 1.05556C10.2641 0.879144 10.1292 0.730656 9.96188 0.626841C9.7946 0.523027 9.60165 0.468018 9.40477 0.468018C9.2079 0.468018 9.01495 0.523027 8.84767 0.626841C8.6804 0.730656 8.54546 0.879144 8.45807 1.05556Z" fill="#FFD200"/>
</svg>
